<svg class="diagram-root" style="background: #f5f6f6" xmlns="http://www.w3.org/2000/svg" xmlns:xlink="http://www.w3.org/1999/xlink"><style>.diagram-root { font-family: "Helvetica Neue", sans-serif; font-size: 12px; } .t { overflow: visible; } .t-bg { y: 40; fill: #fff;   } .th { fill: #005aa0;   } .tht { fill: #fff; font-size: 14px;  } .tf { fill: #323c46; overflow: visible; } .tf.pk { fill: #005aa0; font-weight: bold; } .tf.fk { font-weight: bold; } .ty { fill: #adb1b5; font-weight: normal; text-anchor: end; } .r { fill: transparent; stroke: #c3c3c3; stroke-width: 1; } .l { stroke: 1; } .i { fill: #c2c7ce; stroke: #c2c7ce; } .i.ix { fill: #afb3b6; stroke: #000; } .fa { fill: transparent; overflow: visible; } .fa .bg.hover { fill: #f7f7f7; } .c { cy: 12; r: 4; stroke: #d2d2dc; fill: #d2d2dc; } .hr { fill: transparent; stroke: #323c46; stroke-opacity: 0.035; stroke-width: 13; } .dc { stroke: #fa5a3c; fill: #fa5a3c; } .x { stroke: white; stroke-width: 1; } .hl .th { fill: #1b9bff; } .hl .tht {  } .fhl .bg { fill: #e7f4ff; } .fhls .bg {  } .r.hl { stroke: #1b9bff; } .dim { opacity: 0.25; }</style><g class="drawing-wrapper" transform="translate(-10, -20) scale(1,1)"><g class="rs"><path d="M 231.41 185 m -1, 0 a 1,1 0 1,0 2,0 a 1,1 0 1,0 -2,0 M 231.41 185 m -0.5, 0 a 0.5,0.5 0 1,0 1,0 a 0.5,0.5 0 1,0 -1,0  M231.41 185 L231.41 185 243.41 185 M237.41 191 L237.41 191 237.41 179 M243.41 185 Q 259.56 185, 275.71 146 T 308 107 M 320 107 m -1, 0 a 1,1 0 1,0 2,0 a 1,1 0 1,0 -2,0 M 320 107 m -0.5, 0 a 0.5,0.5 0 1,0 1,0 a 0.5,0.5 0 1,0 -1,0  M320 107 L320 107 308 107 M314 113 L314 113 314 101" id="h403793656" class="r"></path><path d="M 231.41 460 m -1, 0 a 1,1 0 1,0 2,0 a 1,1 0 1,0 -2,0 M 231.41 460 m -0.5, 0 a 0.5,0.5 0 1,0 1,0 a 0.5,0.5 0 1,0 -1,0  M231.41 460 L231.41 460 243.41 460 M 231.41 466 m -1, 0 a 1,1 0 1,0 2,0 a 1,1 0 1,0 -2,0 M 231.41 466 m -0.5, 0 a 0.5,0.5 0 1,0 1,0 a 0.5,0.5 0 1,0 -1,0  M231.41 466 L231.41 466 238.41 460 231.41 454 M 231.41 454 m -1, 0 a 1,1 0 1,0 2,0 a 1,1 0 1,0 -2,0 M 231.41 454 m -0.5, 0 a 0.5,0.5 0 1,0 1,0 a 0.5,0.5 0 1,0 -1,0  M243.41 460 Q 262.31 460, 281.21 367.5 T 319 275 M 331 275 m -1, 0 a 1,1 0 1,0 2,0 a 1,1 0 1,0 -2,0 M 331 275 m -0.5, 0 a 0.5,0.5 0 1,0 1,0 a 0.5,0.5 0 1,0 -1,0  M331 275 L331 275 319 275 M325 281 L325 281 325 269" id="h304082562" class="r"></path><path d="M 231.41 485 m -1, 0 a 1,1 0 1,0 2,0 a 1,1 0 1,0 -2,0 M 231.41 485 m -0.5, 0 a 0.5,0.5 0 1,0 1,0 a 0.5,0.5 0 1,0 -1,0  M231.41 485 L231.41 485 243.41 485 M 231.41 491 m -1, 0 a 1,1 0 1,0 2,0 a 1,1 0 1,0 -2,0 M 231.41 491 m -0.5, 0 a 0.5,0.5 0 1,0 1,0 a 0.5,0.5 0 1,0 -1,0  M231.41 491 L231.41 491 238.41 485 231.41 479 M 231.41 479 m -1, 0 a 1,1 0 1,0 2,0 a 1,1 0 1,0 -2,0 M 231.41 479 m -0.5, 0 a 0.5,0.5 0 1,0 1,0 a 0.5,0.5 0 1,0 -1,0  M243.41 485 Q 259.31 485, 275.21 440.5 T 307 396 M 319 396 m -1, 0 a 1,1 0 1,0 2,0 a 1,1 0 1,0 -2,0 M 319 396 m -0.5, 0 a 0.5,0.5 0 1,0 1,0 a 0.5,0.5 0 1,0 -1,0  M319 396 L319 396 307 396 M313 402 L313 402 313 390" id="h1054157934" class="r"></path><path d="M 332 528 m -1, 0 a 1,1 0 1,0 2,0 a 1,1 0 1,0 -2,0 M 332 528 m -0.5, 0 a 0.5,0.5 0 1,0 1,0 a 0.5,0.5 0 1,0 -1,0  M332 528 L332 528 320 528 M 332 534 m -1, 0 a 1,1 0 1,0 2,0 a 1,1 0 1,0 -2,0 M 332 534 m -0.5, 0 a 0.5,0.5 0 1,0 1,0 a 0.5,0.5 0 1,0 -1,0  M332 534 L332 534 325 528 332 522 M 332 522 m -1, 0 a 1,1 0 1,0 2,0 a 1,1 0 1,0 -2,0 M 332 522 m -0.5, 0 a 0.5,0.5 0 1,0 1,0 a 0.5,0.5 0 1,0 -1,0  M320 528 Q 300.86 528, 281.71 344 T 243.41 160 M 231.41 160 m -1, 0 a 1,1 0 1,0 2,0 a 1,1 0 1,0 -2,0 M 231.41 160 m -0.5, 0 a 0.5,0.5 0 1,0 1,0 a 0.5,0.5 0 1,0 -1,0  M231.41 160 L231.41 160 243.41 160 M237.41 166 L237.41 166 237.41 154" id="h2489065634" class="r"></path></g><g class="hrs"></g><g class="ts"><svg width="199.41" height="400" x="32" y="103" id="h3257514455" class="t"><rect height="40" width="199.41" class="th"></rect><text x="13" y="25" class="tht">campaign</text><rect height="360" width="199.41" class="t-bg"></rect><text x="13" y="61" class="tf pk">cf_id<tspan x="186.41" class="ty">int</tspan></text><path d="M7,14A2,2 0 0,1 5,12A2,2 0 0,1 7,10A2,2 0 0,1 9,12A2,2 0 0,1 7,14M12.65,10C11.83,7.67 9.61,6 7, 6A6, 6 0 0, 0 1, 12A6, 6 0 0, 0 7, 18C9.61, 18 11.83, 16.33 12.65, 14H17V18H21V14H23V10H12.65Z" class="i pk" transform="translate(153.736171875, 48) scale(0.65)"></path><text x="13" y="86" class="tf fk">contact_id<tspan x="186.41" class="ty">int</tspan></text><text x="13" y="111" class="tf">company_name<tspan x="186.41" class="ty">varchar(100)</tspan></text><text x="13" y="136" class="tf">description<tspan x="186.41" class="ty">text</tspan></text><text x="13" y="161" class="tf">goal<tspan x="186.41" class="ty">numeric(10,2)</tspan></text><text x="13" y="186" class="tf">pledged<tspan x="186.41" class="ty">numeric(10,2)</tspan></text><text x="13" y="211" class="tf">outcome<tspan x="186.41" class="ty">varchar(50)</tspan></text><text x="13" y="236" class="tf">backers_count<tspan x="186.41" class="ty">int</tspan></text><text x="13" y="261" class="tf">country<tspan x="186.41" class="ty">varchar(10)</tspan></text><text x="13" y="286" class="tf">currency<tspan x="186.41" class="ty">varchar(10)</tspan></text><text x="13" y="311" class="tf">launch_date<tspan x="186.41" class="ty">date</tspan></text><text x="13" y="336" class="tf">end_date<tspan x="186.41" class="ty">date</tspan></text><text x="13" y="361" class="tf fk">category_id<tspan x="186.41" class="ty">varchar(10)</tspan></text><text x="13" y="386" class="tf fk">subcategory_id<tspan x="186.41" class="ty">varchar(10)</tspan></text></svg><svg width="190.07" height="100" x="331" y="218" id="h2794354149" class="t"><rect height="40" width="190.07" class="th"></rect><text x="13" y="25" class="tht">category</text><rect height="60" width="190.07" class="t-bg"></rect><text x="13" y="61" class="tf pk">category_id<tspan x="177.07" class="ty">varchar(10)</tspan></text><path d="M7,14A2,2 0 0,1 5,12A2,2 0 0,1 7,10A2,2 0 0,1 9,12A2,2 0 0,1 7,14M12.65,10C11.83,7.67 9.61,6 7, 6A6, 6 0 0, 0 1, 12A6, 6 0 0, 0 7, 18C9.61, 18 11.83, 16.33 12.65, 14H17V18H21V14H23V10H12.65Z" class="i pk" transform="translate(95.716484375, 48) scale(0.65)"></path><text x="13" y="86" class="tf">category_name<tspan x="177.07" class="ty">varchar(50)</tspan></text></svg><svg width="209.42" height="100" x="319" y="339" id="h1568904301" class="t"><rect height="40" width="209.42" class="th"></rect><text x="13" y="25" class="tht">subcategory</text><rect height="60" width="209.42" class="t-bg"></rect><text x="13" y="61" class="tf pk">subcategory_id<tspan x="196.42" class="ty">varchar(10)</tspan></text><path d="M7,14A2,2 0 0,1 5,12A2,2 0 0,1 7,10A2,2 0 0,1 9,12A2,2 0 0,1 7,14M12.65,10C11.83,7.67 9.61,6 7, 6A6, 6 0 0, 0 1, 12A6, 6 0 0, 0 7, 18C9.61, 18 11.83, 16.33 12.65, 14H17V18H21V14H23V10H12.65Z" class="i pk" transform="translate(115.06648437499999, 48) scale(0.65)"></path><text x="13" y="86" class="tf">subcategory_name<tspan x="196.42" class="ty">varchar(50)</tspan></text></svg><svg width="163.38" height="150" x="320" y="50" id="h4144639668" class="t"><rect height="40" width="163.38" class="th"></rect><text x="13" y="25" class="tht">contacts</text><rect height="110" width="163.38" class="t-bg"></rect><text x="13" y="61" class="tf pk">contact_id<tspan x="150.38" class="ty">int</tspan></text><path d="M7,14A2,2 0 0,1 5,12A2,2 0 0,1 7,10A2,2 0 0,1 9,12A2,2 0 0,1 7,14M12.65,10C11.83,7.67 9.61,6 7, 6A6, 6 0 0, 0 1, 12A6, 6 0 0, 0 7, 18C9.61, 18 11.83, 16.33 12.65, 14H17V18H21V14H23V10H12.65Z" class="i pk" transform="translate(117.706171875, 48) scale(0.65)"></path><text x="13" y="86" class="tf">first_name<tspan x="150.38" class="ty">varchar(50)</tspan></text><text x="13" y="111" class="tf">last_name<tspan x="150.38" class="ty">varchar(50)</tspan></text><text x="13" y="136" class="tf">email<tspan x="150.38" class="ty">varchar(100)</tspan></text></svg><svg width="179.38" height="175" x="332" y="446" id="h377394120" class="t"><rect height="40" width="179.38" class="th"></rect><text x="13" y="25" class="tht">backer</text><rect height="135" width="179.38" class="t-bg"></rect><text x="13" y="61" class="tf pk">backer_id<tspan x="166.38" class="ty">varchar(10)</tspan></text><path d="M7,14A2,2 0 0,1 5,12A2,2 0 0,1 7,10A2,2 0 0,1 9,12A2,2 0 0,1 7,14M12.65,10C11.83,7.67 9.61,6 7, 6A6, 6 0 0, 0 1, 12A6, 6 0 0, 0 7, 18C9.61, 18 11.83, 16.33 12.65, 14H17V18H21V14H23V10H12.65Z" class="i pk" transform="translate(85.026484375, 48) scale(0.65)"></path><text x="13" y="86" class="tf fk">cf_id<tspan x="166.38" class="ty">int</tspan></text><text x="13" y="111" class="tf">first_name<tspan x="166.38" class="ty">varchar(50)</tspan></text><text x="13" y="136" class="tf">last_name<tspan x="166.38" class="ty">varchar(50)</tspan></text><text x="13" y="161" class="tf">email<tspan x="166.38" class="ty">varchar(100)</tspan></text></svg></g></g><text class="qdbd-link" x="10" y="20">www.quickdatabasediagrams.com</text></svg>